<?xml version="1.0" encoding="UTF-8" standalone="no"?>
<svg width="28px" height="28px" viewBox="0 0 28 28" version="1.1" xmlns="http://www.w3.org/2000/svg" xmlns:xlink="http://www.w3.org/1999/xlink">
    <g id="9)-Done-(success)" stroke="none" stroke-width="1" fill="none" fill-rule="evenodd">
        <g id="1366---Dashboard---V2" transform="translate(-21.000000, -16.000000)" fill="#FFFFFF">
            <g id="Page-1" transform="translate(21.000000, 16.000000)">
                <path d="M0.213422222,5.65446497 C-0.0711030303,5.94071878 5.91014949,5.94071878 5.62534141,5.65446497 C5.91014949,5.94071878 5.91014949,-0.0714639594 5.62534141,0.21493198 C5.91014949,-0.0714639594 -0.0711030303,-0.0714639594 0.213422222,0.21493198 C-0.0711030303,-0.0714639594 -0.0711030303,5.94071878 0.213422222,5.65446497" id="Fill-15"></path>
                <path d="M7.53683636,3.06609949 C7.2521697,3.3523533 13.2334222,3.3523533 12.9486141,3.06609949 C13.2334222,3.3523533 13.2334222,-0.0714639594 12.9486141,0.21493198 C13.2334222,-0.0714639594 7.2521697,-0.0714639594 7.53683636,0.21493198 C7.2521697,-0.0714639594 7.2521697,3.3523533 7.53683636,3.06609949" id="Fill-16"></path>
                <path d="M7.53683636,27.7360609 C7.2521697,28.0224569 13.2334222,28.0224569 12.9486141,27.7360609 C13.2334222,28.0224569 13.2334222,24.5986396 12.9486141,24.8848934 C13.2334222,24.5986396 7.2521697,24.5986396 7.53683636,24.8848934 C7.2521697,24.5986396 7.2521697,28.0224569 7.53683636,27.7360609" id="Fill-17"></path>
                <path d="M22.2373455,5.65446497 C21.9526788,5.94071878 27.9339313,5.94071878 27.6492646,5.65446497 C27.9339313,5.94071878 27.9339313,-0.0714639594 27.6492646,0.21493198 C27.9339313,-0.0714639594 21.9526788,-0.0714639594 22.2373455,0.21493198 C21.9526788,-0.0714639594 21.9526788,5.94071878 22.2373455,5.65446497" id="Fill-18"></path>
                <path d="M20.4739677,4.22585381 C20.5227556,2.55367107 20.4568566,0.0329604061 20.2761293,0.21488934 C20.560796,-0.071506599 14.579402,-0.071506599 14.8642101,0.21488934 C14.7085131,0.0582598985 14.6379475,1.46820914 14.6526545,3.01858477 C14.6526545,3.01858477 14.6300283,3.18033096 14.8111798,3.20051371 C14.8910788,3.20946802 16.5010788,3.20065584 17.6680283,3.38258477 C19.1977051,3.62108223 20.0019273,4.19145787 20.2030182,4.29265584 C20.4042505,4.39371168 20.4739677,4.22585381 20.4739677,4.22585381" id="Fill-19"></path>
                <path d="M0.213422222,27.7360609 C-0.0711030303,28.0224569 5.91014949,28.0224569 5.62534141,27.7360609 C5.91014949,28.0224569 5.91014949,22.0102741 5.62534141,22.2965279 C5.91014949,22.0102741 -0.0711030303,22.0102741 0.213422222,22.2965279 C-0.0711030303,22.0102741 -0.0711030303,28.0224569 0.213422222,27.7360609" id="Fill-20"></path>
                <path d="M14.8642242,27.7360609 C14.5794162,28.0224569 20.5608101,28.0224569 20.2761434,27.7360609 C20.5608101,28.0224569 20.5608101,22.0102741 20.2761434,22.2965279 C20.5608101,22.0102741 14.5794162,22.0102741 14.8642242,22.2965279 C14.5794162,22.0102741 14.5794162,28.0224569 14.8642242,27.7360609" id="Fill-21"></path>
                <path d="M14.8658081,20.3755147 C14.581,20.6617685 20.5622525,20.6617685 20.2777273,20.3755147 C20.5622525,20.6617685 20.6099091,15.936733 20.3253838,16.2231289 C20.4652424,16.0824183 19.5808384,16.5669462 17.840596,16.849931 C16.0952626,17.1339107 14.6678283,16.9671898 14.8126364,17.1128751 C14.5279697,16.8264792 14.581,20.6617685 14.8658081,20.3755147" id="Fill-22"></path>
                <path d="M22.2373455,27.7360609 C21.9528202,28.0224569 27.9340727,28.0224569 27.6494061,27.7360609 C27.9340727,28.0224569 27.9340727,22.0102741 27.6494061,22.2965279 C27.9340727,22.0102741 21.9528202,22.0102741 22.2373455,22.2965279 C21.9528202,22.0102741 21.9528202,28.0224569 22.2373455,27.7360609" id="Fill-23"></path>
                <path d="M0.213422222,13.0283858 C-0.0711030303,13.3146396 5.91014949,13.3146396 5.62534141,13.0283858 C5.91014949,13.3146396 5.91014949,7.30245685 5.62534141,7.58885279 C5.91014949,7.30245685 -0.0711030303,7.30245685 0.213422222,7.58885279 C-0.0711030303,7.30245685 -0.0711030303,13.3146396 0.213422222,13.0283858" id="Fill-24"></path>
                <path d="M22.5592606,13.0283858 C22.2747354,13.3146396 27.9339879,13.3146396 27.6493212,13.0283858 C27.9339879,13.3146396 27.9339879,7.30245685 27.6493212,7.58885279 C27.9339879,7.30245685 22.2747354,7.30245685 22.5592606,7.58885279 C22.4252,7.45396954 22.7016646,8.71794924 22.6940283,10.0623756 C22.685402,11.5705381 22.408796,13.1797563 22.5592606,13.0283858" id="Fill-25"></path>
                <path d="M0.213422222,20.3755147 C-0.0711030303,20.6617685 5.91014949,20.6617685 5.62534141,20.3755147 C5.91014949,20.6617685 5.91014949,14.6495858 5.62534141,14.9359817 C5.91014949,14.6495858 -0.0711030303,14.6495858 0.213422222,14.9359817 C-0.0711030303,14.6495858 -0.0711030303,20.6617685 0.213422222,20.3755147" id="Fill-26"></path>
                <path d="M22.2373455,20.3755147 C21.9528202,20.6617685 27.9340727,20.6617685 27.6494061,20.3755147 C27.9340727,20.6617685 27.9340727,14.6495858 27.6494061,14.9359817 C27.9340727,14.6495858 21.9528202,14.6495858 22.2373455,14.9359817 C21.9528202,14.6495858 21.9528202,20.6617685 22.2373455,20.3755147" id="Fill-27"></path>
            </g>
        </g>
    </g>
</svg>